<?xml version="1.0" encoding="UTF-8" standalone="no"?>
<!-- Created with Inkscape (http://www.inkscape.org/) -->

<svg
   width="25mm"
   height="25mm"
   viewBox="0 0 25.000001 25"
   version="1.1"
   id="svg1"
   sodipodi:docname="logo_ecris.svg"
   xml:space="preserve"
   inkscape:version="1.4 (e7c3feb100, 2024-10-09)"
   xmlns:inkscape="http://www.inkscape.org/namespaces/inkscape"
   xmlns:sodipodi="http://sodipodi.sourceforge.net/DTD/sodipodi-0.dtd"
   xmlns="http://www.w3.org/2000/svg"
   xmlns:svg="http://www.w3.org/2000/svg"><sodipodi:namedview
     id="namedview1"
     pagecolor="#ffffff"
     bordercolor="#000000"
     borderopacity="0.25"
     inkscape:showpageshadow="2"
     inkscape:pageopacity="0.0"
     inkscape:pagecheckerboard="0"
     inkscape:deskcolor="#d1d1d1"
     inkscape:document-units="mm"
     inkscape:zoom="2.2319203"
     inkscape:cx="-20.162011"
     inkscape:cy="94.089382"
     inkscape:window-width="1920"
     inkscape:window-height="985"
     inkscape:window-x="0"
     inkscape:window-y="0"
     inkscape:window-maximized="1"
     inkscape:current-layer="svg1" /><defs
     id="defs1" /><g
     id="g1"
     transform="translate(2.7597964,3.9199724)"><g
       id="layer1"
       transform="translate(-95.250002,-139.96458)"><g
         id="g9"
         transform="matrix(0.66735879,0,0,0.66735879,71.714132,-172.30356)"
         style="fill:#000000"><path
           d="m 35.267188,477.37402 h 4.99291 v -1.64753 h -3.269916 v -2.16318 h 3.131573 v -1.64753 h -3.131573 v -2.18833 h 3.269916 v -1.64753 h -4.99291 z m 13.167709,-2.59078 c -0.767172,0.79233 -1.408579,1.09417 -2.301518,1.09417 -1.722994,0 -3.118996,-1.43373 -3.118996,-3.16931 0,-0.75459 0.289261,-1.55949 0.767172,-2.11286 0.565947,-0.66656 1.37085,-1.01871 2.314095,-1.01871 1.081587,0 1.81103,0.35215 2.43986,1.16963 h 1.92422 c -0.364722,-0.80491 -0.691713,-1.24509 -1.320543,-1.76073 -0.855209,-0.69171 -1.949373,-1.06901 -3.081267,-1.06901 -2.62851,0 -4.779108,2.1506 -4.779108,4.77911 0,2.69139 2.175752,4.84199 4.892297,4.84199 1.911643,0 3.559178,-1.05644 4.288621,-2.75428 z m 2.95551,2.59078 h 1.672688 v -3.87359 c -0.03773,-1.03128 0.490487,-1.6098 1.496615,-1.64753 v -1.60981 h -0.125766 c -0.716866,0 -1.069011,0.20123 -1.509192,0.84263 v -0.67913 h -1.534345 z m 4.20058,0 h 1.722994 v -9.2941 h -1.722994 z m 2.842321,-2.65366 c 0.06288,0.72944 0.226379,1.19478 0.603677,1.69784 0.55337,0.70429 1.458886,1.11932 2.452437,1.11932 1.672688,0 2.968078,-1.29539 2.968078,-2.98065 0,-0.77975 -0.276686,-1.43374 -0.830056,-1.9368 -0.364721,-0.33957 -0.653983,-0.49049 -1.572075,-0.84263 -0.880362,-0.327 -0.905515,-0.33957 -1.031281,-0.41503 -0.339568,-0.2138 -0.515641,-0.50307 -0.515641,-0.84263 0,-0.55337 0.389875,-0.94325 0.955822,-0.94325 0.578523,0 0.930668,0.35215 0.980975,0.98098 h 1.785877 c -0.03773,-0.70429 -0.201226,-1.1822 -0.578524,-1.64754 -0.503064,-0.62883 -1.307966,-0.99355 -2.175752,-0.99355 -1.509192,0 -2.703969,1.16962 -2.703969,2.64109 0,1.16962 0.679137,2.06256 1.936797,2.52789 1.245083,0.46534 1.333119,0.50307 1.609805,0.71687 0.276685,0.22638 0.427604,0.55337 0.427604,0.94324 0,0.66656 -0.515641,1.1319 -1.25766,1.1319 -0.767173,0 -1.1822,-0.3773 -1.25766,-1.15705 z"
           id="text5"
           style="font-weight:bold;font-size:12.5766px;line-height:1.1;font-family:'URW Gothic';-inkscape-font-specification:'URW Gothic Bold';text-align:end;text-anchor:end;white-space:pre;fill-rule:evenodd;stroke-width:0.128737;stroke-linecap:round"
           aria-label="ECrIS" /><g
           id="text9"
           style="font-weight:bold;font-size:3.54798px;line-height:1.1;font-family:'URW Gothic';-inkscape-font-specification:'URW Gothic Bold';text-align:end;text-anchor:end;white-space:pre;fill-rule:evenodd;stroke-width:0.036318;stroke-linecap:round"
           aria-label="espaço&#10;de criação&#10;e investigação&#10;sonora"><path
             d="m 52.863078,481.10191 c 0.01419,-0.071 0.01774,-0.11354 0.01774,-0.1845 0,-0.6067 -0.429305,-1.05375 -1.014722,-1.05375 -0.578321,0 -1.03601,0.45769 -1.03601,1.03601 0,0.57477 0.464785,1.02182 1.064394,1.02182 0.322866,0 0.574773,-0.11708 0.780556,-0.3548 0.07451,-0.0922 0.124179,-0.17385 0.156111,-0.27319 H 52.31669 c -0.120632,0.14192 -0.237715,0.19514 -0.432854,0.19514 -0.28029,0 -0.486073,-0.14902 -0.542841,-0.38673 z m -1.536276,-0.41512 c 0.07451,-0.25545 0.266099,-0.39027 0.546389,-0.39027 0.290934,0 0.482525,0.13837 0.542841,0.39027 z m 1.727861,0.56413 c 0.02129,0.19159 0.05322,0.29448 0.131276,0.39738 0.127727,0.1703 0.35125,0.27319 0.588964,0.27319 0.393826,0 0.7025,-0.29448 0.7025,-0.67057 0,-0.29803 -0.149015,-0.45414 -0.546388,-0.57477 -0.195139,-0.0603 -0.195139,-0.0603 -0.241263,-0.0816 -0.05677,-0.0284 -0.09225,-0.0745 -0.09225,-0.13483 0,-0.0922 0.07806,-0.1632 0.180947,-0.1632 0.09934,0 0.163207,0.0532 0.184495,0.15611 h 0.461238 c -0.0071,-0.16676 -0.04612,-0.2661 -0.141919,-0.37254 -0.12418,-0.13837 -0.308675,-0.21643 -0.503814,-0.21643 -0.36899,0 -0.652828,0.26255 -0.652828,0.59961 0,0.28739 0.152563,0.45059 0.546389,0.58187 0.177399,0.0603 0.195139,0.0674 0.244811,0.0993 0.05677,0.0355 0.0887,0.0887 0.0887,0.15257 0,0.10998 -0.0887,0.19159 -0.212879,0.19159 -0.138371,0 -0.216426,-0.071 -0.26255,-0.23772 z m 1.717228,1.28082 h 0.471881 v -0.84087 c 0.180947,0.15966 0.361894,0.23062 0.603157,0.23062 0.567676,0 0.98279,-0.43995 0.98279,-1.03601 0,-0.59251 -0.411566,-1.02182 -0.975694,-1.02182 -0.269647,0 -0.496718,0.0958 -0.649281,0.27674 v -0.23061 h -0.432853 z m 1.01827,-2.23522 c 0.319318,0 0.564129,0.259 0.564129,0.5996 0,0.33351 -0.244811,0.59252 -0.557033,0.59252 -0.33351,0 -0.581869,-0.25546 -0.581869,-0.59961 0,-0.33706 0.248359,-0.59251 0.574773,-0.59251 z m 3.313813,-0.38673 H 58.67112 v 0.26255 c -0.163207,-0.21643 -0.358346,-0.30868 -0.642184,-0.30868 -0.581869,0 -1.000531,0.4364 -1.000531,1.03601 0,0.59251 0.415114,1.02182 0.989887,1.02182 0.276742,0 0.464785,-0.0851 0.652828,-0.30158 v 0.25546 h 0.432854 z m -1.025367,0.38673 c 0.337059,0 0.578321,0.2519 0.578321,0.61025 0,0.14192 -0.05677,0.30512 -0.141919,0.40447 -0.0958,0.11708 -0.248359,0.1774 -0.429306,0.1774 -0.344154,0 -0.581868,-0.23417 -0.581868,-0.57832 0,-0.35835 0.237714,-0.6138 0.574772,-0.6138 z m 2.316831,1.62497 c 0.471881,0.007 0.847967,-0.25191 1.00053,-0.69186 h -0.532197 c -0.117083,0.18095 -0.251906,0.25901 -0.447045,0.25901 -0.326414,0 -0.571225,-0.25546 -0.571225,-0.59961 0,-0.3477 0.230619,-0.59251 0.560581,-0.59251 0.212879,0 0.361894,0.0887 0.457689,0.26964 h 0.532197 c -0.06741,-0.19869 -0.131275,-0.30158 -0.266098,-0.42576 -0.191591,-0.1774 -0.450594,-0.27674 -0.723788,-0.27674 -0.581869,0 -1.03601,0.45059 -1.03601,1.02892 0,0.50381 0.361894,0.92602 0.869255,1.01472 l -0.149015,0.3477 0.184494,0.0922 c 0.04612,-0.0639 0.08515,-0.0851 0.134824,-0.0851 0.07805,0 0.134823,0.0639 0.134823,0.15611 0,0.0887 -0.05677,0.15256 -0.134823,0.15256 -0.06386,0 -0.10644,-0.0355 -0.134824,-0.10644 h -0.212878 c 0.02484,0.1774 0.170303,0.30158 0.35125,0.30158 0.205783,0 0.337058,-0.13837 0.337058,-0.3548 0,-0.20223 -0.134823,-0.3548 -0.312222,-0.3548 -0.03903,0 -0.06386,0.004 -0.109988,0.0248 z m 2.284897,-2.05783 c -0.571225,0 -1.039558,0.46479 -1.039558,1.02892 0,0.56767 0.468333,1.02891 1.043106,1.02891 0.571225,0 1.046654,-0.46124 1.046654,-1.01472 0,-0.58542 -0.457689,-1.04311 -1.050202,-1.04311 z m 0.0035,0.43286 c 0.31577,0 0.571225,0.26609 0.571225,0.59606 0,0.32996 -0.255455,0.59606 -0.567677,0.59606 -0.319318,0 -0.571225,-0.2661 -0.571225,-0.60316 0,-0.32287 0.255455,-0.58896 0.567677,-0.58896 z"
             id="path19" /><path
             d="m 46.902476,483.15619 h -0.471881 v 0.83022 c -0.138372,-0.15256 -0.365442,-0.24481 -0.610253,-0.24481 -0.553485,0 -0.986339,0.46124 -0.986339,1.05021 0,0.58541 0.425758,1.03246 0.986339,1.03246 0.266098,0 0.457689,-0.0887 0.64928,-0.30158 v 0.25545 h 0.432854 z m -1.01827,1.01827 c 0.329962,0 0.581868,0.26255 0.581868,0.61025 0,0.34061 -0.251906,0.6067 -0.571224,0.6067 -0.329963,0 -0.585417,-0.26964 -0.585417,-0.62089 0,-0.33706 0.251906,-0.59606 0.574773,-0.59606 z m 3.324456,0.83022 c 0.01419,-0.0709 0.01774,-0.11353 0.01774,-0.18449 0,-0.6067 -0.429305,-1.05375 -1.014722,-1.05375 -0.578321,0 -1.03601,0.45769 -1.03601,1.03601 0,0.57477 0.464785,1.02182 1.064394,1.02182 0.322866,0 0.574773,-0.11709 0.780555,-0.3548 0.07451,-0.0922 0.12418,-0.17385 0.156111,-0.27319 h -0.514457 c -0.120631,0.14191 -0.237714,0.19513 -0.432853,0.19513 -0.280291,0 -0.486073,-0.14901 -0.542841,-0.38673 z m -1.536275,-0.41511 c 0.07451,-0.25545 0.266098,-0.39028 0.546389,-0.39028 0.290934,0 0.482525,0.13837 0.542841,0.39028 z m 4.261124,0.54284 c -0.117083,0.18095 -0.251906,0.259 -0.447045,0.259 -0.326414,0 -0.571225,-0.25545 -0.571225,-0.5996 0,-0.34771 0.230619,-0.59252 0.560581,-0.59252 0.212879,0 0.361894,0.0887 0.457689,0.26965 h 0.532197 c -0.06741,-0.19869 -0.131275,-0.30158 -0.266098,-0.42576 -0.191591,-0.1774 -0.450594,-0.27674 -0.723788,-0.27674 -0.581869,0 -1.03601,0.45059 -1.03601,1.02891 0,0.57123 0.468333,1.02892 1.050202,1.02892 0.461237,0 0.812487,-0.25191 0.975694,-0.69186 z m 0.862157,0.64573 h 0.471881 v -1.09277 c -0.01064,-0.29094 0.138372,-0.45414 0.42221,-0.46479 v -0.45414 h -0.03548 c -0.202235,0 -0.301578,0.0568 -0.425757,0.23771 v -0.19159 h -0.432854 z m 1.124708,0 h 0.471881 v -1.96558 h -0.471881 z m 0,-2.17846 h 0.471881 v -0.44349 h -0.471881 z m 2.841931,0.21288 h -0.432853 v 0.26255 c -0.163207,-0.21642 -0.358346,-0.30867 -0.642185,-0.30867 -0.581868,0 -1.00053,0.4364 -1.00053,1.03601 0,0.59251 0.415114,1.02182 0.989886,1.02182 0.276743,0 0.464786,-0.0851 0.652829,-0.30158 v 0.25545 h 0.432853 z m -1.025366,0.38673 c 0.337058,0 0.578321,0.25191 0.578321,0.61026 0,0.14192 -0.05677,0.30512 -0.141919,0.40447 -0.0958,0.11708 -0.248359,0.17739 -0.429306,0.17739 -0.344154,0 -0.581869,-0.23416 -0.581869,-0.57832 0,-0.35834 0.237715,-0.6138 0.574773,-0.6138 z m 2.31683,1.62498 c 0.471882,0.007 0.847968,-0.25191 1.000531,-0.69186 h -0.532197 c -0.117083,0.18095 -0.251907,0.259 -0.447046,0.259 -0.326414,0 -0.571224,-0.25545 -0.571224,-0.5996 0,-0.34771 0.230618,-0.59252 0.56058,-0.59252 0.212879,0 0.361894,0.0887 0.45769,0.26965 h 0.532197 c -0.06741,-0.19869 -0.131275,-0.30158 -0.266099,-0.42576 -0.191591,-0.1774 -0.450593,-0.27674 -0.723788,-0.27674 -0.581868,0 -1.03601,0.45059 -1.03601,1.02891 0,0.50382 0.361894,0.92603 0.869255,1.01473 l -0.149015,0.3477 0.184495,0.0922 c 0.04612,-0.0639 0.08515,-0.0852 0.134823,-0.0852 0.07806,0 0.134824,0.0639 0.134824,0.15612 0,0.0887 -0.05677,0.15256 -0.134824,0.15256 -0.06386,0 -0.106439,-0.0355 -0.134823,-0.10644 h -0.212879 c 0.02484,0.1774 0.170303,0.30158 0.35125,0.30158 0.205783,0 0.337058,-0.13837 0.337058,-0.3548 0,-0.20224 -0.134823,-0.3548 -0.312222,-0.3548 -0.03903,0 -0.06386,0.004 -0.109987,0.0248 z m 3.320907,-2.01171 h -0.432854 v 0.26255 c -0.163207,-0.21642 -0.358346,-0.30867 -0.642184,-0.30867 -0.581869,0 -1.00053,0.4364 -1.00053,1.03601 0,0.58896 0.418661,1.02182 0.986338,1.02182 0.276742,0 0.468333,-0.0887 0.656376,-0.30158 v 0.25545 h 0.432854 z m -1.025366,0.38673 c 0.337058,0 0.57832,0.25191 0.57832,0.61026 0,0.14192 -0.05677,0.30512 -0.141919,0.40447 -0.0958,0.11708 -0.248358,0.17739 -0.429305,0.17739 -0.344154,0 -0.581869,-0.23416 -0.581869,-0.57832 0,-0.35834 0.237715,-0.6138 0.574773,-0.6138 z m -0.326415,-0.67766 c 0.134824,-0.0781 0.15966,-0.0887 0.251907,-0.0887 0.05677,0 0.09225,0.007 0.188043,0.039 0.09225,0.0319 0.156111,0.0461 0.209331,0.0461 0.127727,0 0.219975,-0.0532 0.33351,-0.19159 l -0.188043,-0.28739 c -0.07806,0.0816 -0.149015,0.11709 -0.241263,0.11709 -0.04612,0 -0.09225,-0.0106 -0.166755,-0.039 -0.09934,-0.039 -0.134823,-0.0461 -0.209331,-0.0461 -0.152563,0 -0.241262,0.039 -0.368989,0.16675 z m 2.657437,0.24481 c -0.571225,0 -1.039558,0.46479 -1.039558,1.02891 0,0.56768 0.468333,1.02892 1.043106,1.02892 0.571225,0 1.046654,-0.46124 1.046654,-1.01472 0,-0.58542 -0.457689,-1.04311 -1.050202,-1.04311 z m 0.0035,0.43285 c 0.31577,0 0.571225,0.2661 0.571225,0.59606 0,0.32997 -0.255455,0.59606 -0.567677,0.59606 -0.319318,0 -0.571225,-0.26609 -0.571225,-0.60315 0,-0.32287 0.255455,-0.58897 0.567677,-0.58897 z"
             id="path20" /><path
             d="m 40.498378,488.90746 c 0.01419,-0.071 0.01774,-0.11353 0.01774,-0.18449 0,-0.60671 -0.429305,-1.05375 -1.014722,-1.05375 -0.578321,0 -1.03601,0.45769 -1.03601,1.03601 0,0.57477 0.464785,1.02182 1.064394,1.02182 0.322866,0 0.574773,-0.11709 0.780555,-0.3548 0.07451,-0.0923 0.12418,-0.17385 0.156112,-0.2732 h -0.514458 c -0.120631,0.14192 -0.237714,0.19514 -0.432853,0.19514 -0.280291,0 -0.486073,-0.14901 -0.542841,-0.38673 z m -1.536275,-0.41511 c 0.07451,-0.25546 0.266098,-0.39028 0.546389,-0.39028 0.290934,0 0.482525,0.13837 0.542841,0.39028 z m 2.852576,1.18857 h 0.471881 v -1.96558 h -0.471881 z m 0,-2.17846 h 0.471881 v -0.44349 h -0.471881 z m 0.851515,2.17846 h 0.471881 v -0.92602 c 0,-0.26255 0.01774,-0.37609 0.07806,-0.47188 0.07451,-0.11708 0.195138,-0.18095 0.347702,-0.18095 0.124179,0 0.219974,0.0426 0.283838,0.12418 0.06386,0.0851 0.09225,0.23062 0.09225,0.49317 v 0.9615 H 44.4118 v -1.05375 c 0,-0.35125 -0.03548,-0.52155 -0.141919,-0.67411 -0.127728,-0.1845 -0.340606,-0.28384 -0.613801,-0.28384 -0.227071,0 -0.379634,0.0639 -0.553485,0.23416 v -0.18804 h -0.436401 z m 2.660984,0 h 0.376086 l 0.7912,-1.96558 h -0.532197 l -0.447046,1.30211 -0.454141,-1.30211 h -0.525101 z m 3.228663,-0.77346 c 0.01419,-0.071 0.01774,-0.11353 0.01774,-0.18449 0,-0.60671 -0.429306,-1.05375 -1.014722,-1.05375 -0.578321,0 -1.036011,0.45769 -1.036011,1.03601 0,0.57477 0.464786,1.02182 1.064394,1.02182 0.322867,0 0.574773,-0.11709 0.780556,-0.3548 0.07451,-0.0923 0.124179,-0.17385 0.156111,-0.2732 h -0.514457 c -0.120631,0.14192 -0.237715,0.19514 -0.432853,0.19514 -0.280291,0 -0.486074,-0.14901 -0.542841,-0.38673 z m -1.536275,-0.41511 c 0.07451,-0.25546 0.266098,-0.39028 0.546389,-0.39028 0.290934,0 0.482525,0.13837 0.542841,0.39028 z m 1.727861,0.56413 c 0.02129,0.19159 0.05322,0.29448 0.131275,0.39737 0.127727,0.1703 0.35125,0.2732 0.588965,0.2732 0.393825,0 0.7025,-0.29449 0.7025,-0.67057 0,-0.29803 -0.149015,-0.45414 -0.546389,-0.57477 -0.195139,-0.0603 -0.195139,-0.0603 -0.241263,-0.0816 -0.05677,-0.0284 -0.09225,-0.0745 -0.09225,-0.13482 0,-0.0923 0.07805,-0.16321 0.180947,-0.16321 0.09934,0 0.163207,0.0532 0.184495,0.15611 h 0.461237 c -0.0071,-0.16675 -0.04612,-0.2661 -0.141919,-0.37254 -0.124179,-0.13837 -0.308674,-0.21642 -0.503813,-0.21642 -0.36899,0 -0.652829,0.26255 -0.652829,0.59961 0,0.28738 0.152563,0.45059 0.546389,0.58187 0.177399,0.0603 0.195139,0.0674 0.244811,0.0993 0.05677,0.0355 0.0887,0.0887 0.0887,0.15256 0,0.10999 -0.0887,0.19159 -0.212878,0.19159 -0.138372,0 -0.216427,-0.071 -0.262551,-0.23771 z m 1.773988,0.62444 h 0.471882 v -1.53627 h 0.283838 v -0.42931 h -0.283838 v -0.65637 h -0.471882 v 0.65637 h -0.230618 v 0.42931 h 0.230618 z m 1.014722,0 h 0.471881 v -1.96558 h -0.471881 z m 0,-2.17846 h 0.471881 v -0.44349 h -0.471881 z m 2.394882,0.21288 v 0.24836 c -0.149015,-0.19869 -0.358345,-0.29448 -0.642184,-0.29448 -0.557033,0 -0.968598,0.43285 -0.968598,1.01472 0,0.6067 0.404469,1.04311 0.96505,1.04311 0.276743,0 0.461238,-0.0887 0.645732,-0.30513 -0.01774,0.42221 -0.198686,0.62799 -0.549936,0.62799 -0.219975,0 -0.354798,-0.0568 -0.49317,-0.20933 h -0.535745 c 0.159659,0.39383 0.528649,0.62445 1.011175,0.62445 0.354798,0 0.635088,-0.12418 0.819583,-0.35835 0.138371,-0.18095 0.198687,-0.42221 0.198687,-0.7983 v -1.59304 z m -0.588964,0.38673 c 0.337058,0 0.567677,0.24126 0.567677,0.60316 0,0.3548 -0.219975,0.58896 -0.560581,0.58896 -0.337058,0 -0.553485,-0.23062 -0.553485,-0.58896 0,-0.3619 0.216427,-0.60316 0.546389,-0.60316 z m 3.420253,-0.38673 h -0.432854 v 0.26255 c -0.163207,-0.21642 -0.358346,-0.30867 -0.642184,-0.30867 -0.581869,0 -1.000531,0.4364 -1.000531,1.03601 0,0.59251 0.415114,1.02182 0.989887,1.02182 0.276742,0 0.464785,-0.0852 0.652828,-0.30158 v 0.25545 h 0.432854 z m -1.025367,0.38673 c 0.337059,0 0.578321,0.25191 0.578321,0.61025 0,0.14192 -0.05677,0.30513 -0.141919,0.40447 -0.0958,0.11709 -0.248359,0.1774 -0.429306,0.1774 -0.344154,0 -0.581868,-0.23416 -0.581868,-0.57832 0,-0.35834 0.237714,-0.6138 0.574772,-0.6138 z m 2.31683,1.62498 c 0.471881,0.007 0.847967,-0.25191 1.00053,-0.69186 h -0.532197 c -0.117083,0.18095 -0.251906,0.259 -0.447045,0.259 -0.326414,0 -0.571225,-0.25545 -0.571225,-0.59961 0,-0.3477 0.230619,-0.59251 0.560581,-0.59251 0.212879,0 0.361894,0.0887 0.457689,0.26965 h 0.532197 c -0.06741,-0.19869 -0.131275,-0.30158 -0.266098,-0.42576 -0.191591,-0.1774 -0.450594,-0.27674 -0.723788,-0.27674 -0.581869,0 -1.03601,0.45059 -1.03601,1.02891 0,0.50382 0.361894,0.92602 0.869255,1.01472 l -0.149015,0.34771 0.184494,0.0922 c 0.04612,-0.0639 0.08515,-0.0851 0.134824,-0.0851 0.07805,0 0.134823,0.0639 0.134823,0.15611 0,0.0887 -0.05677,0.15257 -0.134823,0.15257 -0.06386,0 -0.10644,-0.0355 -0.134824,-0.10644 h -0.212878 c 0.02484,0.1774 0.170303,0.30158 0.35125,0.30158 0.205783,0 0.337058,-0.13838 0.337058,-0.3548 0,-0.20224 -0.134823,-0.3548 -0.312222,-0.3548 -0.03903,0 -0.06386,0.004 -0.109988,0.0248 z m 3.320908,-2.01171 h -0.432853 v 0.26255 c -0.163208,-0.21642 -0.358346,-0.30867 -0.642185,-0.30867 -0.581869,0 -1.00053,0.4364 -1.00053,1.03601 0,0.58896 0.418661,1.02182 0.986338,1.02182 0.276743,0 0.468334,-0.0887 0.656377,-0.30158 v 0.25545 h 0.432853 z m -1.025366,0.38673 c 0.337058,0 0.578321,0.25191 0.578321,0.61025 0,0.14192 -0.05677,0.30513 -0.14192,0.40447 -0.09579,0.11709 -0.248358,0.1774 -0.429305,0.1774 -0.344154,0 -0.581869,-0.23416 -0.581869,-0.57832 0,-0.35834 0.237715,-0.6138 0.574773,-0.6138 z m -0.326414,-0.67766 c 0.134823,-0.0781 0.159659,-0.0887 0.251906,-0.0887 0.05677,0 0.09225,0.007 0.188043,0.039 0.09225,0.0319 0.156111,0.0461 0.209331,0.0461 0.127727,0 0.219975,-0.0532 0.33351,-0.19159 l -0.188043,-0.28739 c -0.07806,0.0816 -0.149015,0.11709 -0.241262,0.11709 -0.04612,0 -0.09225,-0.0106 -0.166755,-0.039 -0.09934,-0.039 -0.134824,-0.0461 -0.209331,-0.0461 -0.152563,0 -0.241263,0.039 -0.36899,0.16676 z m 2.657435,0.24481 c -0.571225,0 -1.039558,0.46478 -1.039558,1.02891 0,0.56768 0.468333,1.02892 1.043106,1.02892 0.571225,0 1.046654,-0.46124 1.046654,-1.01473 0,-0.58541 -0.457689,-1.0431 -1.050202,-1.0431 z m 0.0035,0.43285 c 0.31577,0 0.571225,0.2661 0.571225,0.59606 0,0.32996 -0.255455,0.59606 -0.567677,0.59606 -0.319318,0 -0.571225,-0.2661 -0.571225,-0.60315 0,-0.32287 0.255455,-0.58897 0.567677,-0.58897 z"
             id="path21" /><path
             d="m 52.220893,492.95926 c 0.02129,0.19159 0.05322,0.29448 0.131275,0.39737 0.127727,0.1703 0.35125,0.27319 0.588965,0.27319 0.393825,0 0.7025,-0.29448 0.7025,-0.67056 0,-0.29803 -0.149015,-0.45415 -0.546389,-0.57478 -0.195139,-0.0603 -0.195139,-0.0603 -0.241263,-0.0816 -0.05677,-0.0284 -0.09225,-0.0745 -0.09225,-0.13482 0,-0.0923 0.07805,-0.16321 0.180947,-0.16321 0.09934,0 0.163207,0.0532 0.184495,0.15611 h 0.461237 c -0.0071,-0.16675 -0.04612,-0.2661 -0.141919,-0.37254 -0.12418,-0.13837 -0.308674,-0.21642 -0.503813,-0.21642 -0.36899,0 -0.652829,0.26255 -0.652829,0.5996 0,0.28739 0.152563,0.4506 0.546389,0.58187 0.177399,0.0603 0.195139,0.0674 0.244811,0.0994 0.05677,0.0355 0.0887,0.0887 0.0887,0.15256 0,0.10999 -0.0887,0.19159 -0.212878,0.19159 -0.138372,0 -0.216427,-0.071 -0.262551,-0.23771 z m 2.639699,-1.38726 c -0.571225,0 -1.039558,0.46478 -1.039558,1.02891 0,0.56768 0.468333,1.02891 1.043106,1.02891 0.571225,0 1.046654,-0.46123 1.046654,-1.01472 0,-0.58541 -0.45769,-1.0431 -1.050202,-1.0431 z m 0.0035,0.43285 c 0.31577,0 0.571225,0.2661 0.571225,0.59606 0,0.32996 -0.255455,0.59606 -0.567677,0.59606 -0.319318,0 -0.571225,-0.2661 -0.571225,-0.60316 0,-0.32286 0.255454,-0.58896 0.567677,-0.58896 z m 1.31275,1.57885 h 0.471881 v -0.92602 c 0,-0.26255 0.01774,-0.37609 0.07806,-0.47188 0.07451,-0.11709 0.195139,-0.18095 0.347702,-0.18095 0.124179,0 0.219975,0.0426 0.283838,0.12418 0.06386,0.0851 0.09225,0.23062 0.09225,0.49317 v 0.9615 h 0.471881 v -1.05375 c 0,-0.35125 -0.03548,-0.52155 -0.141919,-0.67412 -0.127727,-0.18449 -0.340606,-0.28383 -0.6138,-0.28383 -0.227071,0 -0.379634,0.0639 -0.553485,0.23416 v -0.18804 h -0.43636 z m 3.083196,-2.0117 c -0.571225,0 -1.039558,0.46478 -1.039558,1.02891 0,0.56768 0.468333,1.02891 1.043106,1.02891 0.571225,0 1.046654,-0.46123 1.046654,-1.01472 0,-0.58541 -0.457689,-1.0431 -1.050202,-1.0431 z m 0.0035,0.43285 c 0.31577,0 0.571225,0.2661 0.571225,0.59606 0,0.32996 -0.255455,0.59606 -0.567677,0.59606 -0.319318,0 -0.571225,-0.2661 -0.571225,-0.60316 0,-0.32286 0.255455,-0.58896 0.567677,-0.58896 z m 1.312751,1.57885 h 0.471881 v -1.09278 c -0.01064,-0.29093 0.138371,-0.45414 0.42221,-0.46478 V 491.572 H 61.4349 c -0.202235,0 -0.301578,0.0568 -0.425758,0.23771 v -0.19159 h -0.432853 z m 3.068998,-1.96558 H 63.21253 v 0.26255 c -0.163207,-0.21643 -0.358346,-0.30867 -0.642185,-0.30867 -0.581868,0 -1.00053,0.4364 -1.00053,1.03601 0,0.59251 0.415114,1.02181 0.989886,1.02181 0.276743,0 0.464786,-0.0851 0.652829,-0.30157 v 0.25545 h 0.432853 z m -1.025366,0.38673 c 0.337058,0 0.578321,0.25191 0.578321,0.61025 0,0.14192 -0.05677,0.30513 -0.141919,0.40447 -0.0958,0.11709 -0.248359,0.1774 -0.429306,0.1774 -0.344154,0 -0.581869,-0.23417 -0.581869,-0.57832 0,-0.35835 0.237715,-0.6138 0.574773,-0.6138 z"
             id="path22" /></g></g></g></g></svg>
