<?xml version="1.0" encoding="UTF-8" standalone="no"?>
<svg
   id="fu-logo"
   version="1.1"
   viewBox="0 0 400 134.37576"
   x="0"
   y="0"
   style="inline-size:335px;display:block"
   sodipodi:docname="Freie Universität Berlin Logo 09.05.2024.svg"
   width="400"
   height="134.37576"
   inkscape:version="1.1.2 (0a00cf5339, 2022-02-04)"
   xmlns:inkscape="http://www.inkscape.org/namespaces/inkscape"
   xmlns:sodipodi="http://sodipodi.sourceforge.net/DTD/sodipodi-0.dtd"
   xmlns:xlink="http://www.w3.org/1999/xlink"
   xmlns="http://www.w3.org/2000/svg"
   xmlns:svg="http://www.w3.org/2000/svg">
  <sodipodi:namedview
     id="namedview85"
     pagecolor="#505050"
     bordercolor="#ffffff"
     borderopacity="1"
     inkscape:pageshadow="0"
     inkscape:pageopacity="0"
     inkscape:pagecheckerboard="1"
     showgrid="false"
     inkscape:zoom="1.4659829"
     inkscape:cx="365.625"
     inkscape:cy="155.86812"
     inkscape:window-width="1850"
     inkscape:window-height="1016"
     inkscape:window-x="0"
     inkscape:window-y="0"
     inkscape:window-maximized="1"
     inkscape:current-layer="fu-logo" />
  <defs
     id="defs65">
    <g
       id="fu-logo-elements">
      <g
         id="g8">
        <polygon
           points="156.3,43.8 100,43.8 100,87.5 75,87.5 75,25 156.3,25 "
           id="polygon2" />
        <polygon
           points="150,106.3 100,106.3 100,87.5 150,87.5 "
           id="polygon4" />
        <polygon
           points="75,162.5 50,162.5 50,112.5 75,112.5 "
           id="polygon6" />
      </g>
      <g
         id="g20">
        <path
           d="m 187.5,25 h 19.7 v 5.9 h -12.7 v 7.2 h 10.8 V 44 h -10.8 v 12.2 h -7.1 V 25 Z"
           style="d:path('M 187.5 25 H 207.2 V 30.9 H 194.5 V 38.1 H 205.3 V 44 H 194.5 V 56.2 H 187.4 V 25 Z')"
           id="path10" />
        <path
           d="m 237.7,56.3 -7.1,-12.5 c 3.3,-1.5 5.6,-4.4 5.6,-9 0,-7.4 -5.4,-9.7 -12.1,-9.7 h -11.3 v 31.3 h 7.1 V 45 h 3.9 l 6,11.2 h 7.9 z M 219.9,30.6 h 3.6 c 3.7,0 5.7,1 5.7,4.1 0,3.1 -2,4.7 -5.7,4.7 h -3.6 z"
           style="d:path('M 237.7 56.3 L 230.6 43.8 C 233.9 42.3 236.2 39.4 236.2 34.8 C 236.2 27.4 230.8 25.1 224.1 25.1 H 212.8 V 56.4 H 219.9 V 45 H 223.8 L 229.8 56.2 H 237.7 Z M 219.9 30.6 H 223.5 C 227.2 30.6 229.2 31.6 229.2 34.7 C 229.2 37.8 227.2 39.4 223.5 39.4 H 219.9 V 30.6 Z')"
           id="path12" />
        <path
           d="m 242.5,25 h 19.6 v 5.9 h -12.5 v 6.3 h 10.7 v 5.9 h -10.7 v 7.2 h 13 v 5.9 h -20.1 z"
           style="d:path('M 242.5 25 H 262.1 V 30.9 H 249.6 V 37.2 H 260.3 V 43.1 H 249.6 V 50.3 H 262.6 V 56.2 H 242.5 V 25 Z')"
           id="path14" />
        <path
           d="m 269,25 h 7.1 V 56.3 H 269 Z"
           style="d:path('M 269 25 H 276.1 V 56.3 H 269 V 25 Z')"
           id="path16" />
        <path
           d="m 283.2,25 h 19.6 v 5.9 h -12.5 v 6.3 H 301 v 5.9 h -10.7 v 7.2 h 13 v 5.9 h -20.1 z"
           style="d:path('M 283.2 25 H 302.8 V 30.9 H 290.3 V 37.2 H 301 V 43.1 H 290.3 V 50.3 H 303.3 V 56.2 H 283.2 V 25 Z')"
           id="path18" />
      </g>
      <g
         id="g48">
        <path
           d="m 427.8,72.7 c 2,0 3.4,-1.4 3.4,-3.4 0,-1.9 -1.4,-3.4 -3.4,-3.4 -2,0 -3.4,1.4 -3.4,3.4 0,2 1.4,3.4 3.4,3.4 z"
           style="d:path('M 427.8 72.7 C 429.8 72.7 431.2 71.3 431.2 69.3 C 431.2 67.4 429.8 65.9 427.8 65.9 C 425.8 65.9 424.4 67.3 424.4 69.3 C 424.4 71.3 425.8 72.7 427.8 72.7 Z')"
           id="path22" />
        <path
           d="m 417.2,72.7 c 2,0 3.4,-1.4 3.4,-3.4 0,-1.9 -1.4,-3.4 -3.4,-3.4 -2,0 -3.4,1.4 -3.4,3.4 0,2 1.4,3.4 3.4,3.4 z"
           style="d:path('M 417.2 72.7 C 419.2 72.7 420.6 71.3 420.6 69.3 C 420.6 67.4 419.2 65.9 417.2 65.9 C 415.2 65.9 413.8 67.3 413.8 69.3 C 413.8 71.3 415.2 72.7 417.2 72.7 Z')"
           id="path24" />
        <path
           d="M 187.5,91.8 V 75 h 7.1 v 17.5 c 0,6.1 1.9,8.2 5.4,8.2 3.5,0 5.5,-2.1 5.5,-8.2 V 75 h 6.8 v 16.8 c 0,10.5 -4.3,15.1 -12.3,15.1 -8.1,0 -12.5,-4.6 -12.5,-15.1 z"
           style="d:path('M 187.5 91.8 V 75 H 194.6 V 92.5 C 194.6 98.6 196.5 100.7 200 100.7 C 203.5 100.7 205.5 98.6 205.5 92.5 V 75 H 212.3 V 91.8 C 212.3 102.3 208 106.9 200 106.9 C 191.9 106.9 187.5 102.3 187.5 91.8 Z')"
           id="path26" />
        <path
           d="m 218.8,75 h 7.2 l 8.2,15.5 3.1,6.9 h 0.2 C 237.2,94.1 236.6,89.7 236.6,86 V 75 h 6.7 v 31.3 h -7.2 L 228,90.7 224.9,83.9 h -0.2 c 0.3,3.4 0.9,7.6 0.9,11.3 v 11.1 h -6.7 V 75 Z"
           style="d:path('M 218.8 75 H 226 L 234.2 90.5 L 237.3 97.4 H 237.5 C 237.2 94.1 236.6 89.7 236.6 86 V 75 H 243.3 V 106.3 H 236.1 L 228 90.7 L 224.9 83.9 H 224.7 C 225 87.3 225.6 91.5 225.6 95.2 V 106.3 H 218.9 V 75 Z')"
           id="path28" />
        <path
           d="m 250.4,75 h 7.1 v 31.3 h -7.1 z"
           style="d:path('M 250.4 75 H 257.5 V 106.3 H 250.4 V 75 Z')"
           id="path30" />
        <path
           d="m 261,75 h 7.5 l 3.8,14.6 c 0.9,3.4 1.6,6.6 2.5,10 h 0.2 c 0.9,-3.4 1.6,-6.6 2.5,-10 L 281.2,75 h 7.2 l -9.4,31.3 h -8.5 z"
           style="d:path('M 261 75 H 268.5 L 272.3 89.6 C 273.2 93 273.9 96.2 274.8 99.6 H 275 C 275.9 96.2 276.6 93 277.5 89.6 L 281.2 75 H 288.4 L 279 106.3 H 270.5 L 261 75 Z')"
           id="path32" />
        <path
           d="m 291.9,75 h 19.6 v 6 H 299 v 6.3 h 10.7 v 5.9 H 299 v 7.2 h 13 v 5.9 h -20.1 z"
           style="d:path('M 291.9 75 H 311.5 V 81 H 299 V 87.3 H 309.7 V 93.2 H 299 V 100.4 H 312 V 106.3 H 291.9 V 75 Z')"
           id="path34" />
        <path
           d="m 342.8,106.3 -7.1,-12.5 c 3.3,-1.5 5.6,-4.4 5.6,-9 0,-7.4 -5.4,-9.7 -12.1,-9.7 H 318 v 31.3 h 7.1 V 95.1 h 3.9 l 6,11.2 z M 325.1,80.7 h 3.6 c 3.7,0 5.7,1 5.7,4.1 0,3.1 -2,4.7 -5.7,4.7 h -3.6 z"
           style="d:path('M 342.8 106.3 L 335.7 93.8 C 339 92.3 341.3 89.4 341.3 84.8 C 341.3 77.4 335.9 75.1 329.2 75.1 H 318 V 106.4 H 325.1 V 95.1 H 329 L 335 106.3 H 342.8 Z M 325.1 80.7 H 328.7 C 332.4 80.7 334.4 81.7 334.4 84.8 C 334.4 87.9 332.4 89.5 328.7 89.5 H 325.1 V 80.7 Z')"
           id="path36" />
        <path
           d="m 344.9,102.4 4.1,-4.8 c 2.2,1.9 5.1,3.3 7.7,3.3 2.9,0 4.4,-1.2 4.4,-3 0,-2 -1.8,-2.6 -4.5,-3.7 l -4.1,-1.7 c -3.2,-1.3 -6.3,-4 -6.3,-8.5 0,-5.2 4.6,-9.3 11.1,-9.3 3.6,0 7.4,1.4 10.1,4.1 l -3.6,4.5 c -2.1,-1.6 -4,-2.4 -6.5,-2.4 -2.4,0 -4,1 -4,2.8 0,1.9 2,2.6 4.8,3.7 l 4,1.6 c 3.8,1.5 6.2,4.1 6.2,8.5 0,5.2 -4.3,9.7 -11.8,9.7 -4.1,-0.3 -8.4,-1.9 -11.6,-4.8 z"
           style="d:path('M 344.9 102.4 L 349 97.6 C 351.2 99.5 354.1 100.9 356.7 100.9 C 359.6 100.9 361.1 99.7 361.1 97.9 C 361.1 95.9 359.3 95.3 356.6 94.2 L 352.5 92.5 C 349.3 91.2 346.2 88.5 346.2 84 C 346.2 78.8 350.8 74.7 357.3 74.7 C 360.9 74.7 364.7 76.1 367.4 78.8 L 363.8 83.3 C 361.7 81.7 359.8 80.9 357.3 80.9 C 354.9 80.9 353.3 81.9 353.3 83.7 C 353.3 85.6 355.3 86.3 358.1 87.4 L 362.1 89 C 365.9 90.5 368.3 93.1 368.3 97.5 C 368.3 102.7 364 107.2 356.5 107.2 C 352.4 106.9 348.1 105.3 344.9 102.4 Z')"
           id="path38" />
        <path
           d="m 373.9,75 h 7.1 v 31.3 h -7.1 z"
           style="d:path('M 373.9 75 H 381 V 106.3 H 373.9 V 75 Z')"
           id="path40" />
        <path
           d="m 394.4,81 h -8.6 V 75 H 410 v 6 h -8.6 v 25.3 h -7.1 V 81 Z"
           style="d:path('M 394.4 81 H 385.8 V 75 H 410 V 81 H 401.4 V 106.3 H 394.3 V 81 Z')"
           id="path42" />
        <path
           d="m 429.2,106.3 h 7.5 L 426.9,75 h -8.5 l -9.8,31.3 h 7.2 l 1.9,-7.4 h 9.5 z m -10,-12.9 0.8,-2.9 c 0.9,-3.1 1.7,-6.8 2.5,-10.1 h 0.2 c 0.8,3.3 1.7,7 2.5,10.1 l 0.7,2.9 z"
           style="d:path('M 429.2 106.3 H 436.7 L 426.9 75 H 418.4 L 408.6 106.3 H 415.8 L 417.7 98.9 H 427.2 L 429.2 106.3 Z M 419.2 93.4 L 420 90.5 C 420.9 87.4 421.7 83.7 422.5 80.4 H 422.7 C 423.5 83.7 424.4 87.4 425.2 90.5 L 425.9 93.4 H 419.2 Z')"
           id="path44" />
        <path
           d="M 443.6,81 H 435 v -6 h 24.3 v 6 h -8.6 v 25.3 h -7.1 V 81 Z"
           style="d:path('M 443.6 81 H 435 V 75 H 459.3 V 81 H 450.7 V 106.3 H 443.6 V 81 Z')"
           id="path46" />
      </g>
      <g
         id="g62">
        <path
           d="m 187.5,131.2 h 8.9 c 6.3,0 10.6,2.2 10.6,7.6 0,3.2 -1.7,5.8 -4.7,6.8 v 0.2 c 3.9,0.7 6.5,3.2 6.5,7.5 0,6.1 -4.7,9.1 -11.7,9.1 h -9.6 z m 8.2,13.5 c 5.8,0 8.1,-2.1 8.1,-5.5 0,-3.9 -2.7,-5.4 -7.9,-5.4 h -5.1 v 10.9 z m 0.8,15.2 c 5.7,0 9.1,-2.1 9.1,-6.6 0,-4.1 -3.3,-6 -9.1,-6 h -5.8 v 12.6 z"
           style="d:path('M 187.5 131.2 H 196.4 C 202.7 131.2 207 133.4 207 138.8 C 207 142 205.3 144.6 202.3 145.6 V 145.8 C 206.2 146.5 208.8 149 208.8 153.3 C 208.8 159.4 204.1 162.4 197.1 162.4 H 187.5 V 131.2 Z M 195.7 144.7 C 201.5 144.7 203.8 142.6 203.8 139.2 C 203.8 135.3 201.1 133.8 195.9 133.8 H 190.8 V 144.7 H 195.7 Z M 196.5 159.9 C 202.2 159.9 205.6 157.8 205.6 153.3 C 205.6 149.2 202.3 147.3 196.5 147.3 H 190.7 V 159.9 H 196.5 Z')"
           id="path50" />
        <path
           d="m 215.5,131.2 h 17.6 v 2.8 h -14.4 v 10.6 h 12.1 v 2.8 h -12.1 v 12.3 h 14.9 v 2.8 h -18.1 z"
           style="d:path('M 215.5 131.2 H 233.1 V 134 H 218.7 V 144.6 H 230.8 V 147.4 H 218.7 V 159.7 H 233.6 V 162.5 H 215.5 V 131.2 Z')"
           id="path52" />
        <path
           d="m 261.5,162.5 -8.2,-14 c 4.5,-0.9 7.4,-3.8 7.4,-8.7 0,-6.3 -4.4,-8.6 -10.7,-8.6 h -9.4 v 31.3 h 3.3 v -13.7 h 6 l 7.9,13.7 z m -17.7,-28.6 h 5.6 c 5.1,0 8,1.6 8,5.9 0,4.3 -2.8,6.3 -8,6.3 h -5.6 z"
           style="d:path('M 261.5 162.5 L 253.3 148.5 C 257.8 147.6 260.7 144.7 260.7 139.8 C 260.7 133.5 256.3 131.2 250 131.2 H 240.6 V 162.5 H 243.9 V 148.8 H 249.9 L 257.8 162.5 H 261.5 Z M 243.8 133.9 H 249.4 C 254.5 133.9 257.4 135.5 257.4 139.8 C 257.4 144.1 254.6 146.1 249.4 146.1 H 243.8 V 133.9 Z')"
           id="path54" />
        <path
           d="m 267.4,131.2 h 3.3 v 28.5 h 13.9 v 2.8 h -17.2 z"
           style="d:path('M 267.4 131.2 H 270.7 V 159.7 H 284.6 V 162.5 H 267.4 V 131.2 Z')"
           id="path56" />
        <path
           d="m 290.3,131.2 h 3.3 v 31.3 h -3.3 z"
           style="d:path('M 290.3 131.2 H 293.6 V 162.5 H 290.3 V 131.2 Z')"
           id="path58" />
        <path
           d="m 302.6,131.2 h 3.4 l 12,20.6 3.4,6.4 h 0.2 c -0.2,-3.1 -0.4,-6.4 -0.4,-9.6 v -17.4 h 3.1 v 31.3 H 321 l -12,-20.6 -3.4,-6.4 h -0.2 c 0.2,3.1 0.4,6.2 0.4,9.4 v 17.6 h -3.1 v -31.3 z"
           style="d:path('M 302.6 131.2 H 306 L 318 151.8 L 321.4 158.2 H 321.6 C 321.4 155.1 321.2 151.8 321.2 148.6 V 131.2 H 324.3 V 162.5 H 321 L 309 141.9 L 305.6 135.5 H 305.4 C 305.6 138.6 305.8 141.7 305.8 144.9 V 162.5 H 302.7 V 131.2 Z')"
           id="path60" />
      </g>
    </g>
  </defs>
  <use
     x="0"
     xlink:href="#fu-logo-elements"
     y="0"
     id="use82"
     width="100%"
     height="100%"
     transform="matrix(0.97727828,0,0,0.97727828,-48.863914,-24.431957)" />
</svg>
