<?xml version="1.0" encoding="UTF-8" standalone="no"?>
<!-- Created with Inkscape (http://www.inkscape.org/) -->

<svg
   width="136.21477mm"
   height="109.98mm"
   viewBox="0 0 136.21477 109.98"
   version="1.1"
   id="svg1"
   inkscape:version="1.4.2 (ebf0e940, 2025-05-08)"
   sodipodi:docname="logo_fapemig.svg"
   xmlns:inkscape="http://www.inkscape.org/namespaces/inkscape"
   xmlns:sodipodi="http://sodipodi.sourceforge.net/DTD/sodipodi-0.dtd"
   xmlns="http://www.w3.org/2000/svg"
   xmlns:svg="http://www.w3.org/2000/svg">
  <sodipodi:namedview
     id="namedview1"
     pagecolor="#ffffff"
     bordercolor="#000000"
     borderopacity="0.25"
     inkscape:showpageshadow="2"
     inkscape:pageopacity="0.0"
     inkscape:pagecheckerboard="0"
     inkscape:deskcolor="#d1d1d1"
     inkscape:document-units="mm"
     inkscape:zoom="0.72434325"
     inkscape:cx="345.14023"
     inkscape:cy="211.9161"
     inkscape:current-layer="layer1" />
  <defs
     id="defs1" />
  <g
     inkscape:label="Layer 1"
     inkscape:groupmode="layer"
     id="layer1">
    <path
       style="fill:#000000"
       d="m 8.3115547,94.079217 c 0,-9.35547 0.0081,-9.49874 0.601908,-10.62161 1.031844,-1.95125 1.6312433,-2.12001 7.5299023,-2.12001 h 5.097357 v 1.97827 1.97827 l -4.696354,0.0722 -4.696354,0.0722 -0.07645,2.31511 -0.07645,2.3151 h 3.582176 3.582176 v 1.85208 1.85209 h -3.571875 -3.571875 v 4.89479 4.894793 H 10.163633 8.3115487 Z m 14.0229173,9.360833 c 0,-0.44086 6.710543,-20.736803 7.010104,-21.201963 0.469569,-0.72916 1.807456,-1.26718 2.634728,-1.05955 0.3626,0.091 0.90358,0.4277 1.202179,0.74821 0.329548,0.35373 1.64231,3.96574 3.340426,9.19107 1.538636,4.73458 3.083561,9.419093 3.433166,10.410033 0.349606,0.99094 0.635646,1.85414 0.635646,1.91823 0,0.0641 -0.877037,0.11652 -1.948972,0.11652 h -1.948973 l -0.841023,-2.65303 -0.841023,-2.653023 -3.706844,0.0733 -3.706844,0.0733 -0.845348,2.513543 -0.845347,2.51354 -1.785938,0.0782 c -0.982265,0.043 -1.785937,0.0122 -1.785937,-0.0685 z m 11.379806,-9.071723 c 0.0076,-0.55422 -2.254237,-7.73906 -2.436316,-7.73906 -0.116732,0 -0.21224,0.15285 -0.21224,0.33968 0,0.18682 -0.5212,1.97276 -1.158222,3.96875 l -1.158221,3.62907 h 2.481138 c 1.364626,0 2.482363,-0.0893 2.483861,-0.19844 z m 10.845193,-0.38891 c 0,-8.84512 0.03887,-9.67984 0.489861,-10.52077 0.959177,-1.78848 1.51168,-1.99012 5.418627,-1.97753 3.01437,0.01 3.62694,0.0862 4.54255,0.56716 2.15077,1.12976 3.14766,3.11586 3.16263,6.30078 0.023,4.90642 -2.75661,7.27604 -8.535035,7.27604 h -1.36032 l -0.0732,3.9026 -0.0732,3.902613 -1.785935,0.0782 -1.785938,0.0782 z m 8.340088,-2.74039 c 1.6437,-0.77999 2.1882,-3.31066 1.07715,-5.00633 -0.52751,-0.80508 -2.08798,-1.24133 -4.069475,-1.13769 l -1.5113,0.079 -0.0743,3.24114 -0.0743,3.24115 h 1.88638 c 1.169765,0 2.220485,-0.15854 2.765835,-0.41732 z m 11.77071,11.832683 c -0.53982,-0.28951 -1.16225,-0.95784 -1.51723,-1.62912 -0.58707,-1.11017 -0.60191,-1.33177 -0.60191,-8.992493 0,-7.68648 0.013,-7.87918 0.60974,-9.02036 1.00932,-1.9303 1.5893,-2.09125 7.53779,-2.09173 l 5.10482,-4.1e-4 -0.0777,1.91823 -0.0777,1.91823 -4.63021,0.13229 -4.63022,0.13229 -0.0764,2.31511 -0.0764,2.3151 h 3.44988 3.44989 v 1.85208 1.85209 h -3.43959 -3.43958 v 2.4919 c 0,1.37055 0.0723,2.68023 0.1606,2.91042 0.13793,0.35943 0.81024,0.41851 4.7625,0.41851 h 4.6019 v 1.984383 1.98437 h -5.09736 c -4.45959,0 -5.21188,-0.0614 -6.01267,-0.49089 z m 15.92984,-9.968613 0.075,-10.48643 0.86407,-0.77183 c 0.92202,-0.82359 1.60936,-0.95351 2.50594,-0.47367 0.69846,0.3738 1.79292,1.64759 2.33692,2.71982 0.2284,0.45017 1.05,1.93818 1.8258,3.30669 1.6475,2.90623 1.30344,3.04571 3.79023,-1.53657 0.90055,-1.65941 1.94762,-3.34923 2.32681,-3.75516 1.38653,-1.48428 3.10226,-1.24486 4.01248,0.55993 0.42197,0.83666 0.45818,1.82615 0.39688,10.84255 l -0.0675,9.921883 -1.52136,0.0794 -1.52135,0.0794 v -8.543813 -8.54381 l -2.79092,4.49527 c -1.53501,2.47241 -2.8827,4.58706 -2.99486,4.69922 -0.21049,0.21049 -0.3805,-0.0367 -3.89739,-5.66687 l -2.09079,-3.34714 -0.13229,8.37422 -0.13229,8.374223 -1.53019,0.0796 -1.53018,0.0796 z m 23.755191,-0.653 v -11.1125 h 1.85208 1.85209 v 11.1125 11.112503 h -1.85209 -1.85208 z m 14.79797,10.750723 c -1.87297,-0.50501 -3.54106,-1.61956 -4.61643,-3.0845 -4.04595,-5.511683 -2.56423,-15.257003 2.73043,-17.958133 1.73473,-0.88499 4.05252,-1.20084 6.2162,-0.84711 1.04841,0.17141 2.29316,0.45 2.7661,0.61911 l 0.8599,0.30746 v 1.93123 c 0,1.06217 -0.10453,1.93122 -0.23228,1.93122 -0.12775,0 -0.67402,-0.18457 -1.21394,-0.41017 -3.14576,-1.31438 -5.8625,-1.02629 -7.70595,0.81716 -1.27393,1.27393 -1.6759,2.34796 -1.88033,5.02411 -0.35413,4.63591 1.48429,7.57698 5.11392,8.18115 0.60108,0.10006 1.52381,0.10107 2.05052,0.002 l 0.95764,-0.17965 v -2.74868 -2.74868 h -1.5875 -1.5875 v -1.85208 -1.85209 h 3.43958 3.43959 v 6.07522 6.075223 l -1.12448,0.30353 c -2.89157,0.78051 -5.69941,0.93274 -7.62547,0.41342 z M 46.458199,73.135137 c -4.104009,-0.87272 -6.771247,-3.67571 -9.001211,-9.45936 -1.781834,-4.62137 -2.645512,-9.47019 -2.862867,-16.07255 -0.255352,-7.75658 0.522992,-13.75177 2.555405,-19.68299 1.859673,-5.42711 4.473696,-8.89352 7.62118,-10.1063 1.285697,-0.4954 2.016688,-0.57906 4.948138,-0.56629 2.940895,0.0128 3.895855,0.13214 6.586695,0.82312 1.7309,0.44447 3.97494,1.12447 4.98674,1.5111 1.79694,0.68666 1.82815,0.71445 1.34491,1.1977 -0.48325,0.48324 -0.53756,0.48247 -2.34091,-0.0334 -4.81872,-1.37847 -11.040915,-1.66095 -14.229423,-0.646 -2.604907,0.82918 -4.792086,3.2239 -6.995487,7.65931 -4.874787,9.81286 -5.212657,22.19913 -0.893754,32.76494 2.107402,5.15557 4.619727,8.28401 7.585864,9.4462 1.444626,0.56603 1.998543,0.61934 6.7335,0.64806 4.95586,0.0301 7.14375,0.23198 7.14375,0.65934 0,0.23181 -2.17619,0.86632 -5.02709,1.46574 -2.45446,0.51607 -6.627357,0.71632 -8.15544,0.39138 z m 19.53253,-1.7283 c -8.69207,-1.21462 -15.24973,-3.99087 -17.966195,-7.60617 -1.293174,-1.72106 -1.937065,-3.89453 -1.972433,-6.65797 -0.03347,-2.61495 0.315838,-5.70301 0.645096,-5.70301 0.133938,0 0.243524,0.21727 0.243524,0.48282 0,0.26555 0.295469,1.35154 0.656597,2.4133 0.361128,1.06176 0.732546,2.54113 0.825366,3.28749 0.21885,1.75964 1.42536,4.31044 2.536135,5.36188 1.37571,1.30222 4.23086,3.14258 6.68237,4.30729 6.10474,2.90036 12.69079,4.11566 18.9726,3.50094 4.98595,-0.4879 8.25955,-1.42146 12.79256,-3.64812 5.16995,-2.53953 8.05845,-5.23781 9.00986,-8.4165 1.10577,-3.69446 1.0631,-7.34981 -0.14047,-12.02884 -0.3933,-1.52905 -0.43327,-2.04495 -0.18876,-2.43648 0.17061,-0.27318 0.38895,-0.4967 0.48521,-0.4967 0.0963,0 0.60564,1.33945 1.13197,2.97656 2.830491,8.80412 2.234071,14.69328 -1.86771,18.44206 -2.4168,2.20883 -7.4214,4.42999 -12.26657,5.44421 -5.78324,1.21058 -14.11202,1.54121 -19.57915,0.77724 z m -1.40736,-2.73157 c -0.3733,-0.14714 -0.13582,-0.32923 1.05834,-0.81143 3.98315,-1.60841 8.33918,-4.53971 11.57848,-7.79151 4.46635,-4.48359 7.86732,-10.22862 8.50529,-14.36741 0.2142,-1.38973 -0.27413,-4.26524 -1.05254,-6.19762 -2.17362,-5.396 -8.33482,-11.30573 -16.12795,-15.46969 -1.9154,-1.02342 -2.04553,-1.14337 -1.53613,-1.41599 0.6418,-0.34348 1.77142,0.21729 6.25508,3.10517 5.0342,3.24248 8.36709,6.03916 10.99085,9.22263 2.22398,2.69839 3.22089,4.43764 3.97301,6.93145 1.51158,5.01198 -0.31175,9.5352 -6.3426,15.73443 -3.85362,3.96121 -8.2823,7.24824 -13.55813,10.06305 -2.27928,1.21606 -2.82147,1.36044 -3.7437,0.99692 z m -7.72955,-6.49433 c -4.62851,-1.06086 -7.001485,-3.73528 -9.061054,-10.21209 -1.482071,-4.66073 -1.769918,-7.05266 -1.767133,-14.68437 0.0022,-5.92775 0.08383,-7.33881 0.5905,-10.20259 0.855502,-4.83545 1.237069,-5.97972 2.045532,-6.13426 0.36317,-0.0694 0.66031,-0.10885 0.66031,-0.0876 0,0.0212 -0.24315,0.73043 -0.54034,1.57598 -3.468393,9.8682 -2.767061,22.33727 1.732145,30.79596 1.5981,3.00449 2.85021,4.45416 4.61192,5.33958 1.73425,0.87161 2.22186,0.98652 5.67441,1.33715 2.67073,0.27123 6.92467,0.0332 9.95311,-0.55691 1.68564,-0.32847 5.74451,-1.57033 7.25782,-2.22063 l 1.04011,-0.44696 -0.3943,0.61889 c -0.77556,1.2173 -6.54127,3.43449 -11.6078,4.46376 -3.54952,0.72109 -8.05707,0.90417 -10.19523,0.41409 z m 29.65365,-8.91444 c 0.8029,-1.32254 2.33702,-3.29105 3.89807,-5.00181 2.05486,-2.25194 4.53055,-5.77997 5.57639,-7.94671 2.61365,-5.41491 0.67629,-11.92804 -5.48381,-18.43575 -7.51242,-7.936346 -18.32743,-13.035886 -27.71815,-13.069756 -2.99809,-0.0108 -4.54939,0.30697 -6.06439,1.24229 -1.04942,0.64789 -3.2397,3.08734 -4.31534,4.80628 -0.60915,0.973446 -0.82759,1.124476 -1.62638,1.124476 -0.507495,0 -0.922725,-0.0711 -0.922725,-0.15804 0,-0.47324 2.280275,-4.422036 3.307225,-5.727196 2.21395,-2.8137101 4.28089,-3.7193701 8.46673,-3.7098101 7.08042,0.0162 16.06746,3.8867301 25.43705,10.9552861 10.81041,8.15554 15.269501,16.92483 11.94595,23.49304 -1.78773,3.53304 -5.19748,7.29152 -9.60175,10.58375 -2.83995,2.12289 -3.2118,2.35942 -2.89887,1.84395 z m -37.888535,-7.28155 c -0.34301,-1.3291 -0.0925,-2.17175 1.890225,-6.35923 3.16932,-6.69343 6.55733,-11.60183 11.21945,-16.25427 6.24948,-6.23652 10.54103,-7.92067 15.45496,-6.06506 5.10642,1.9283 11.71057,8.58624 16.60179,16.73704 1.87065,3.11726 2.22938,3.98876 1.89083,4.5937 -0.21749,0.38861 -0.4235,0.14189 -1.24703,-1.49341 -4.64561,-9.22497 -14.94542,-18.06995 -21.02697,-18.05695 -4.14137,0.009 -10.85637,4.37581 -15.74533,10.23965 -3.80544,4.56426 -6.50031,9.78754 -8.269325,16.02785 l -0.48753,1.71979 z"
       id="path1" />
  </g>
</svg>
