<?xml version="1.0" encoding="UTF-8" standalone="no"?>
<!-- Created with Inkscape (http://www.inkscape.org/) -->

<svg
   width="195.19511mm"
   height="60.078125mm"
   viewBox="0 0 195.19511 60.078125"
   version="1.1"
   id="svg1"
   inkscape:version="1.4.2 (ebf0e940, 2025-05-08)"
   sodipodi:docname="logo_cnpq.svg"
   xmlns:inkscape="http://www.inkscape.org/namespaces/inkscape"
   xmlns:sodipodi="http://sodipodi.sourceforge.net/DTD/sodipodi-0.dtd"
   xmlns="http://www.w3.org/2000/svg"
   xmlns:svg="http://www.w3.org/2000/svg">
  <sodipodi:namedview
     id="namedview1"
     pagecolor="#ffffff"
     bordercolor="#000000"
     borderopacity="0.25"
     inkscape:showpageshadow="2"
     inkscape:pageopacity="0.0"
     inkscape:pagecheckerboard="0"
     inkscape:deskcolor="#d1d1d1"
     inkscape:document-units="mm"
     inkscape:zoom="0.23357804"
     inkscape:cx="470.93467"
     inkscape:cy="327.51366"
     inkscape:current-layer="layer1" />
  <defs
     id="defs1" />
  <g
     inkscape:label="Layer 1"
     inkscape:groupmode="layer"
     id="layer1">
    <g
       id="group-R5"
       transform="matrix(0.26458333,0,0,0.26458333,0,6.8003294e-5)">
      <path
         id="path2"
         d="m 4977.79,613.359 c -4.2,-8.398 -4.2,-14.711 -6.31,-21.019 0,-6.309 0,-12.629 -4.19,-18.942 0,-6.32 0,-12.628 0,-23.136 0,-6.301 -2.11,-12.621 -2.11,-18.934 0,-27.34 6.3,-52.566 18.92,-71.508 12.62,-21.039 33.65,-29.449 63.09,-29.449 37.87,0 69.41,8.41 94.67,31.551 27.36,23.148 50.48,73.617 69.41,149.348 6.31,12.621 10.51,27.339 12.62,44.16 0,14.718 4.2,31.539 4.2,46.281 0,31.543 -10.67,61.133 -23.13,86.223 -12.48,25.117 -37.87,37.871 -75.72,37.871 -31.54,0 -61,-12.617 -82.05,-37.871 -23.13,-29.438 -37.85,-56.782 -48.36,-88.325 -6.31,-16.839 -12.62,-31.558 -14.73,-48.39 -4.2,-14.707 -6.31,-27.328 -6.31,-39.949 z m -265.02,-71.507 c 0,18.918 0,37.859 2.09,56.796 4.2,18.922 6.31,39.961 12.62,63.082 16.86,75.735 54.71,147.254 107.27,214.551 56.81,67.317 138.84,100.957 256.62,105.164 33.65,0 63.08,-6.304 92.56,-25.23 25.23,-18.93 46.27,-42.063 65.19,-65.219 4.2,-2.098 6.31,-6.308 6.31,-12.613 4.2,-2.102 6.31,-6.313 10.51,-8.41 l 21.05,82.031 h 246.1 L 5337.46,41.2695 h -246.09 l 69.39,347.0505 c -16.81,-18.929 -31.52,-37.879 -48.36,-50.5 -14.7,-12.609 -31.54,-25.23 -44.16,-33.64 -21.05,-10.52 -39.98,-16.828 -63.1,-23.141 -18.93,-2.098 -44.16,-6.301 -69.42,-6.301 -77.81,0 -132.52,18.922 -164.04,56.774 -27.34,35.777 -46.31,75.726 -52.62,115.679 -4.2,14.731 -6.29,31.571 -6.29,46.289 0,16.809 0,31.54 0,48.372 z m -392.98,267.132 c 37.87,-2.105 73.63,10.508 100.95,35.746 29.46,25.243 48.4,50.477 56.82,82.04 0,4.21 4.2,10.515 4.2,16.828 0,2.097 0,8.406 0,14.715 0,23.132 -10.51,42.057 -29.46,60.987 -14.72,14.75 -46.26,25.25 -90.42,25.25 h -136.74 l -50.47,-235.566 z m -328.13,431.166 h 439.61 c 12.62,-4.21 21.03,-4.21 33.67,-4.21 12.62,0 23.13,0 35.74,0 65.2,-6.31 128.36,-21.06 185.1,-52.57 56.74,-31.48 86.23,-88.34 86.23,-170.38 0,-140.92 -44.18,-237.677 -132.52,-300.76 -88.34,-61.011 -193.49,-88.339 -309.2,-88.339 H 4132.6 l -69.42,-326.02 h -267.13 z m -1061.52,0 h 378.59 l 166.17,-677.279 153.54,677.279 h 246.09 L 3670.51,297.871 h -370.18 l -176.7,715.119 -143,-715.119 H 2734.51 Z M 1825.68,632.301 c 0,35.75 0,73.621 6.31,113.57 6.33,44.172 14.74,86.25 27.36,130.41 29.44,94.649 86.24,182.989 170.36,265.029 82.03,82.01 208.23,124.09 378.61,126.2 18.93,0 42.06,0 63.09,0 23.13,-2.11 48.39,-6.31 69.42,-8.42 67.31,-10.52 128.3,-29.46 185.09,-63.1 52.58,-31.54 82.01,-86.25 82.01,-161.94 0,-12.64 0,-21.06 0,-33.68 -4.2,-12.612 -6.31,-25.229 -10.51,-37.85 h -288.14 c 4.21,6.308 4.21,8.41 4.21,14.718 0,4.207 0,6.321 0,12.625 0,29.437 -10.52,54.687 -25.26,67.307 -18.93,14.72 -37.85,25.23 -60.98,31.54 -8.42,2.11 -21.03,2.11 -31.55,6.32 -8.41,0 -18.94,0 -27.36,0 -6.31,0 -16.82,0 -23.13,-4.21 -8.41,0 -14.72,-2.11 -25.23,-2.11 -37.86,-12.61 -75.74,-42.05 -113.58,-88.34 -33.65,-48.366 -63.11,-121.987 -84.14,-212.436 0,-10.52 -4.21,-16.829 -4.21,-25.239 -2.1,-6.304 -2.1,-16.824 -2.1,-23.132 -4.21,-18.918 -6.31,-33.641 -6.31,-50.493 -4.21,-14.711 -4.21,-27.34 -4.21,-44.16 0,-50.469 10.52,-90.449 29.44,-126.199 21.04,-33.641 56.81,-52.59 109.37,-52.59 6.32,0 10.52,0 16.83,0 2.11,0 8.42,2.098 14.75,2.098 10.51,0 16.82,0 25.23,4.23 10.51,2.102 18.93,6.313 31.54,8.41 25.24,12.621 48.37,29.43 69.42,50.469 23.13,25.231 35.75,50.492 37.85,79.942 l 275.55,2.089 c 4.2,-2.089 4.2,-6.3 4.2,-8.398 0,0 0,-4.211 0,-6.313 0,-16.828 -6.32,-37.878 -16.84,-63.109 -12.62,-29.437 -31.54,-60.988 -56.78,-88.348 -35.75,-42.05 -88.34,-79.902 -155.65,-117.781 -69.41,-35.75 -157.75,-54.672 -265.01,-54.672 -2.11,0 -6.32,0 -8.42,0 -4.2,0 -10.51,0 -12.62,0 -145.12,0 -243.98,31.543 -294.47,92.551 -46.26,58.883 -75.72,124.09 -84.14,195.582 0,12.629 0,23.16 0,35.777 0,12.622 0,21.024 0,33.653 z M 765.609,986.457 c 0,105.153 84.149,187.183 185.09,187.183 103.061,0 185.101,-82.03 185.101,-187.183 0,-100.957 -82.04,-182.996 -185.101,-182.996 -100.941,0 -185.09,82.039 -185.09,182.996 z m 824.501,315.483 c 136.73,-298.66 48.4,-584.721 -52.58,-719.331 L 1691.08,6.30859 H 1508.1 L 1329.3,626.77 c 109.38,107.277 183,323.925 126.2,502.71 -48.36,178.77 -199.82,334.43 -410.15,374.39 -231.366,48.39 -445.909,-69.41 -538.455,-229.27 -58.883,-92.55 -69.399,-176.67 -77.809,-281.834 0,0 -113.578,-275.547 -155.664,-376.504 H 397.523 V 193.488 H 1152.62 L 1205.22,2.10156 H 210.344 V 452.211 H 0 c 0,0 229.262,523.711 227.164,540.555 14.723,187.174 96.758,414.344 273.422,553.174 88.352,69.4 208.227,134.62 370.199,151.44 174.565,18.93 250.295,-12.62 363.865,-54.7 195.62,-82.01 328.12,-267.11 355.46,-340.74 z m -189.28,-166.16 c 29.44,-113.57 25.24,-178.788 4.2,-267.128 C 1379.78,767.707 1325.1,689.879 1272.5,645.711 L 1461.82,0 H 1272.5 c -60.98,237.68 -138.8,498.48 -201.9,729.848 37.86,23.125 145.13,82.031 159.85,225.047 16.83,132.505 -65.21,237.675 -121.99,275.545 -50.5,31.54 -124.089,52.58 -193.511,39.96 -132.511,-14.72 -220.847,-119.89 -243.988,-233.47 -2.098,-14.72 -2.098,-21.03 -2.098,-44.164 0,0 -54.699,-145.149 -69.422,-189.305 h 37.879 v -376.5 h 448.01 L 1140,239.781 H 450.113 v 420.66 l -94.648,4.207 c 35.75,100.957 124.098,328.118 124.098,328.118 8.402,82.024 14.71,239.784 182.992,370.174 75.722,65.2 199.824,109.38 328.113,96.77 218.752,-25.25 359.672,-172.49 410.162,-323.93 v 0"
         style="fill:#2e5baa;fill-opacity:1;fill-rule:evenodd;stroke:none"
         transform="matrix(0.13333333,0,0,-0.13333333,0,227.06667)" />
    </g>
  </g>
</svg>
