<?xml version="1.0" encoding="UTF-8" standalone="no"?>
<!-- Created with Inkscape (http://www.inkscape.org/) -->

<svg
   width="33.712841mm"
   height="9.7911825mm"
   viewBox="0 0 33.712841 9.7911825"
   version="1.1"
   id="svg1"
   xmlns="http://www.w3.org/2000/svg"
   xmlns:svg="http://www.w3.org/2000/svg">
  <defs
     id="defs1" />
  <g
     id="layer1"
     transform="translate(-88.106249,-143.66874)">
    <path
       id="path11"
       d="m 88.610831,147.71038 v -3.2492 c 0,-0.30137 -0.245081,-0.38987 -0.504584,-0.41533 v -0.28429 h 1.980562 v 0.28291 c -0.249208,0.0225 -0.459962,0.10435 -0.459962,0.39125 v 3.21562 c 0,1.08743 0.67486,1.52481 1.585189,1.52481 1.654465,0 1.654465,-1.28721 1.654465,-2.47007 v -1.39424 c 0,-1.00587 -0.08504,-1.22632 -0.599315,-1.26867 v -0.28161 h 1.6641 v 0.28023 c -0.304805,0.0309 -0.520385,0.17697 -0.520385,0.82032 v 2.39853 c 0,1.36012 -0.650827,2.40087 -2.375991,2.40087 -1.512428,0 -2.424079,-0.57948 -2.424079,-1.95113"
       style="fill:#000000;fill-opacity:1;fill-rule:evenodd;stroke:none;stroke-width:0.0686511" />
    <path
       id="path12"
       d="m 97.226539,148.84037 v -4.28664 c 0,-0.3561 -0.202502,-0.47439 -0.566369,-0.50788 v -0.31381 c 0.662502,0.0103 1.318777,0.0185 1.984004,0.0185 1.112871,0 1.809666,-0.0115 2.496156,-0.0255 l 0.0325,0.93723 h -0.3151 c -0.16891,-0.48406 -0.48127,-0.55752 -1.348998,-0.55752 h -1.265223 v 2.23522 h 1.110749 c 0.479868,0 0.742832,-0.008 0.822422,-0.39667 h 0.2403 v 1.1381 h -0.24921 c -0.0796,-0.32046 -0.297953,-0.36385 -0.813512,-0.36385 h -1.110749 v 1.88736 c 0,0.58834 0.229942,0.74013 0.721506,0.75303 l 0.0058,0.28024 h -2.3094 v -0.29046 c 0.363867,-0.0322 0.566369,-0.14911 0.566369,-0.50741"
       style="fill:#000000;fill-opacity:1;fill-rule:evenodd;stroke:none;stroke-width:0.0686511" />
    <path
       id="path13"
       d="m 121.40552,147.90047 v 0.38109 l -0.006,1.11983 c -0.58629,0.15769 -1.36959,0.34326 -2.21811,0.34326 -1.90301,0 -3.23965,-1.3376 -3.23965,-2.99059 0,-1.89195 1.46706,-3.08532 3.32137,-3.08532 0.30959,0 0.55607,0.0352 1.11347,0.10435 0.15315,0.0263 0.92134,0.16841 1.08539,0.20142 l 0.0749,1.09005 h -0.38792 c -0.26907,-0.53768 -0.64257,-1.01871 -1.67163,-1.01871 -1.28859,0 -2.37669,0.78063 -2.37669,2.67176 0,1.10137 0.61508,2.6487 2.49338,2.6487 0.29657,0 0.56843,-0.0713 0.83961,-0.18962 0,-0.10565 0.0241,-0.75571 0.0241,-0.91017 0,-0.52237 -0.059,-0.74281 -0.48538,-0.81228 v -0.29363 h 1.84673 v 0.27461 c -0.33026,0.0309 -0.41535,0.1386 -0.41535,0.46525"
       style="fill:#000000;fill-opacity:1;fill-rule:evenodd;stroke:none;stroke-width:0.0686511" />
    <path
       id="path14"
       d="m 113.39597,147.89917 c -0.19226,0.20541 -0.88355,0.8061 -1.11353,0.8061 -0.0907,0 -0.20731,-0.0496 -0.20731,-0.15445 0,-0.1395 0.11676,-0.39557 0.18118,-0.5994 l 1.02286,-2.99676 c 0.0646,-0.17966 0.12902,-0.42344 0.12902,-0.62754 0,-0.28127 -0.11539,-0.52292 -0.51077,-0.52292 -1.21786,0 -3.13805,2.14941 -3.83006,3.02121 h -0.0253 l 0.61441,-1.90988 c 0.0776,-0.2293 0.1407,-0.48674 0.1407,-0.68974 0,-0.2446 -0.17923,-0.42159 -0.57534,-0.42159 -1.13893,0 -3.03437,2.10972 -3.64744,2.99464 h -0.0269 l 0.66525,-1.93405 c 0.051,-0.15363 0.14206,-0.39549 0.14206,-0.61381 0,-0.24295 -0.12766,-0.44678 -0.43589,-0.44678 -0.84582,0 -1.74237,1.02229 -2.22708,1.62429 0,0 -0.12494,0.15233 -0.0269,0.23678 0.11326,0.0969 0.22037,-0.006 0.22037,-0.006 l 0.34466,-0.38561 c 0.22928,-0.2293 0.4737,-0.44754 0.74143,-0.44754 0.15451,0 0.20597,0.11526 0.20597,0.25744 0,0.11396 -0.0376,0.24083 -0.0516,0.31826 l -1.33252,4.02716 c -0.0288,0.14636 0.24302,0.22524 0.37204,0.22524 0.32335,0 0.47164,-0.0968 0.51077,-0.20115 l 0.23066,-0.67066 c 0.34601,-0.97347 0.89591,-1.85577 1.60234,-2.61279 0.40917,-0.44705 1.17738,-1.3435 1.86798,-1.3435 0.17923,0 0.24236,0.14211 0.24236,0.31964 0,0.33309 -0.17845,0.81976 -0.21691,0.94821 l -1.11972,3.33926 c -0.0241,0.10565 0.0885,0.25181 0.43595,0.25319 0.31989,0 0.40845,-0.11108 0.44759,-0.22772 l 0.21073,-0.52319 c 0.3577,-0.92274 0.71672,-1.58811 1.31677,-2.32796 0.4112,-0.50123 1.57556,-1.79379 2.24145,-1.79379 0.13933,0 0.29451,0.10139 0.29451,0.3068 0,0.12762 -0.0769,0.34593 -0.14011,0.52587 l -1.03663,2.96971 c -0.0913,0.25607 -0.15588,0.46017 -0.15588,0.60201 0,0.33096 0.23207,0.4347 0.47509,0.4347 0.7023,0 1.30502,-0.57654 1.80621,-1.12657 l 0.39678,-0.436 c 0,0 0.10917,-0.11534 0,-0.20733 -0.0934,-0.0769 -0.17981,0.016 -0.17981,0.016"
       style="fill:#c8102e;fill-opacity:1;fill-rule:evenodd;stroke:none;stroke-width:0.0686511" />
    <path
       id="path15"
       d="m 103.87062,151.32335 h 8.85328 v 2.13657 h -8.85328 v -2.13657"
       style="fill:#c8102e;fill-opacity:1;fill-rule:nonzero;stroke:none;stroke-width:0.0686511" />
  </g>
</svg>
