<svg xmlns="http://www.w3.org/2000/svg" viewBox="0 0 122 79"><path stroke="#8f8f8f" stroke-width="1.75" d="M86.5 72.5c0 3.3 2.7 6 6 6h23c3.3 0 6-2.7 6-6v-23c0-3.3-2.7-6-6-6h-23c-3.3 0-6 2.7-6 6v23zm-43 0c0 3.3 2.7 6 6 6h23c3.3 0 6-2.7 6-6v-23c0-3.3-2.7-6-6-6h-23c-3.3 0-6 2.7-6 6v23zm0-43c0 3.3 2.7 6 6 6h23c3.3 0 6-2.7 6-6v-23c0-3.3-2.7-6-6-6h-23c-3.3 0-6 2.7-6 6v23zm-43 43c0 3.3 2.7 6 6 6h23c3.3 0 6-2.7 6-6v-23c0-3.3-2.7-6-6-6h-23c-3.3 0-6 2.7-6 6v23z" fill="none"/><path stroke="#8f8f8f" stroke-width="1.75" fill="none" d="M102 55.157L107.843 61 102 66.843m-84 0L12.157 61 18 55.157M66.843 58L61 63.843 55.157 58m-.25-37l5.843-5.843L66.593 21"/></svg>